<?xml version="1.0" encoding="UTF-8"?>
<svg xmlns="http://www.w3.org/2000/svg" xmlns:xlink="http://www.w3.org/1999/xlink" width="32px" height="32px" viewBox="0 0 32 31" version="1.1">
<g id="surface1">
<path style=" stroke:none;fill-rule:nonzero;fill:rgb(0%,40.392157%,52.54902%);fill-opacity:1;" d="M 4.992188 1.453125 C 5.046875 1.453125 5.046875 1.453125 5.105469 1.453125 C 5.554688 1.457031 6 1.5 6.449219 1.542969 C 6.496094 1.550781 6.539062 1.554688 6.585938 1.558594 C 10.835938 1.96875 15.023438 2.960938 20.679688 6.320312 C 20.804688 6.410156 20.933594 6.5 21.058594 6.585938 C 21.375 6.8125 21.667969 7.0625 21.960938 7.3125 C 22.015625 7.355469 22.015625 7.355469 22.070312 7.402344 C 22.167969 7.484375 22.265625 7.570312 22.359375 7.652344 C 22.398438 7.6875 22.4375 7.71875 22.476562 7.753906 C 22.808594 8.046875 23.125 8.347656 23.441406 8.652344 C 23.511719 8.722656 23.582031 8.792969 23.652344 8.859375 C 23.917969 9.121094 24.164062 9.390625 24.398438 9.675781 C 24.492188 9.792969 24.59375 9.902344 24.695312 10.011719 C 24.929688 10.269531 25.136719 10.542969 25.339844 10.820312 C 25.363281 10.847656 25.382812 10.875 25.402344 10.902344 C 26.613281 12.535156 27.625 14.300781 28.371094 16.183594 C 28.394531 16.234375 28.414062 16.289062 28.4375 16.339844 C 29.589844 19.253906 30.335938 22.472656 30.382812 25.609375 C 30.382812 25.652344 30.382812 25.691406 30.386719 25.734375 C 30.382812 26.117188 30.265625 26.464844 30.003906 26.753906 C 29.644531 27.066406 29.308594 27.132812 28.835938 27.117188 C 28.476562 27.082031 28.191406 26.957031 27.957031 26.679688 C 27.734375 26.390625 27.664062 26.109375 27.640625 25.75 C 27.636719 25.671875 27.628906 25.597656 27.625 25.523438 C 27.621094 25.484375 27.621094 25.445312 27.617188 25.402344 C 27.324219 21.234375 26.253906 17.148438 22.160156 11.503906 C 22.128906 11.46875 22.097656 11.429688 22.0625 11.394531 C 21.777344 11.078125 21.480469 10.777344 21.175781 10.476562 C 21.128906 10.429688 21.082031 10.386719 21.035156 10.339844 C 20.730469 10.039062 20.410156 9.769531 20.074219 9.503906 C 20.019531 9.457031 19.964844 9.410156 19.90625 9.363281 C 16.726562 6.664062 11.867188 4.261719 7.609375 3.984375 C 7.335938 4.007812 7.140625 4.148438 6.960938 4.34375 C 6.84375 4.542969 6.847656 4.726562 6.847656 4.949219 C 6.847656 4.984375 6.847656 5.023438 6.84375 5.058594 C 6.84375 5.183594 6.84375 5.304688 6.839844 5.425781 C 6.839844 5.511719 6.839844 5.597656 6.839844 5.683594 C 6.835938 5.90625 6.832031 6.128906 6.832031 6.355469 C 6.828125 6.582031 6.824219 6.8125 6.824219 7.039062 C 6.816406 7.488281 6.8125 7.933594 6.808594 8.382812 C 6.851562 8.386719 6.894531 8.390625 6.9375 8.394531 C 6.996094 8.398438 7.050781 8.402344 7.109375 8.40625 C 7.167969 8.410156 7.222656 8.414062 7.28125 8.417969 C 7.554688 8.441406 7.824219 8.488281 8.097656 8.535156 C 8.1875 8.550781 8.1875 8.550781 8.277344 8.566406 C 10.980469 9.0625 13.6875 9.933594 15.949219 11.503906 C 16 11.539062 16 11.539062 16.050781 11.570312 C 16.855469 12.125 17.578125 12.738281 18.285156 13.402344 C 18.332031 13.449219 18.378906 13.492188 18.425781 13.535156 C 18.71875 13.816406 18.976562 14.113281 19.230469 14.425781 C 19.28125 14.488281 19.28125 14.488281 19.335938 14.550781 C 21.988281 17.644531 23.332031 21.941406 23.375 25.945312 C 23.375 26.007812 23.378906 26.066406 23.378906 26.132812 C 23.378906 26.511719 23.351562 26.808594 23.066406 27.09375 C 23.035156 27.109375 23.007812 27.128906 22.976562 27.144531 C 22.949219 27.164062 22.921875 27.183594 22.890625 27.203125 C 22.699219 27.304688 22.535156 27.300781 22.324219 27.304688 C 22.289062 27.304688 22.253906 27.304688 22.21875 27.304688 C 22.101562 27.304688 21.988281 27.304688 21.871094 27.304688 C 21.789062 27.304688 21.707031 27.304688 21.625 27.304688 C 21.351562 27.304688 21.082031 27.308594 20.808594 27.308594 C 20.714844 27.308594 20.621094 27.308594 20.53125 27.308594 C 20.089844 27.308594 19.652344 27.308594 19.210938 27.308594 C 18.703125 27.308594 18.199219 27.3125 17.691406 27.3125 C 17.300781 27.316406 16.90625 27.316406 16.515625 27.316406 C 16.28125 27.316406 16.046875 27.316406 15.8125 27.316406 C 15.59375 27.320312 15.371094 27.320312 15.152344 27.320312 C 15.070312 27.320312 14.992188 27.320312 14.910156 27.320312 C 14.144531 27.324219 14.144531 27.324219 13.8125 27.101562 C 13.625 26.871094 13.5625 26.679688 13.535156 26.390625 C 13.296875 23.886719 12.550781 21.472656 10.542969 19.78125 C 9.75 19.15625 8.433594 18.179688 7.359375 18.257812 C 7.171875 18.296875 7.0625 18.355469 6.90625 18.472656 C 6.734375 18.746094 6.703125 18.976562 6.699219 19.296875 C 6.699219 19.328125 6.695312 19.363281 6.695312 19.398438 C 6.695312 19.507812 6.695312 19.617188 6.691406 19.726562 C 6.691406 19.800781 6.691406 19.878906 6.6875 19.953125 C 6.6875 20.15625 6.683594 20.355469 6.679688 20.554688 C 6.679688 20.761719 6.675781 20.964844 6.671875 21.167969 C 6.667969 21.570312 6.664062 21.972656 6.660156 22.371094 C 6.703125 22.386719 6.75 22.402344 6.796875 22.417969 C 7.289062 22.582031 7.6875 22.894531 8.050781 23.25 C 8.085938 23.28125 8.117188 23.316406 8.15625 23.347656 C 8.792969 23.984375 9.082031 24.949219 9.109375 25.824219 C 9.085938 26.929688 8.59375 27.855469 7.800781 28.613281 C 7.175781 29.132812 6.382812 29.445312 5.566406 29.488281 C 5.5 29.492188 5.5 29.492188 5.429688 29.496094 C 4.390625 29.527344 3.445312 29.113281 2.695312 28.429688 C 2.023438 27.792969 1.59375 26.851562 1.578125 25.9375 C 1.574219 24.851562 1.957031 23.925781 2.734375 23.152344 C 3.039062 22.855469 3.414062 22.554688 3.824219 22.421875 C 3.828125 22.390625 3.828125 22.359375 3.828125 22.328125 C 3.835938 21.578125 3.847656 20.832031 3.859375 20.082031 C 3.867188 19.71875 3.871094 19.359375 3.875 18.996094 C 3.878906 18.679688 3.882812 18.363281 3.890625 18.050781 C 3.890625 17.882812 3.894531 17.714844 3.898438 17.546875 C 3.898438 17.359375 3.902344 17.175781 3.90625 16.988281 C 3.90625 16.90625 3.90625 16.90625 3.90625 16.820312 C 3.921875 15.996094 3.921875 15.996094 4.136719 15.722656 C 4.453125 15.433594 4.746094 15.425781 5.15625 15.4375 C 8.292969 15.582031 11.355469 16.644531 13.523438 18.929688 C 14.738281 20.28125 15.546875 21.933594 15.914062 23.699219 C 15.976562 23.992188 16.066406 24.226562 16.324219 24.410156 C 16.539062 24.511719 16.722656 24.523438 16.960938 24.523438 C 17.054688 24.527344 17.054688 24.527344 17.152344 24.527344 C 17.222656 24.527344 17.289062 24.527344 17.359375 24.527344 C 17.429688 24.527344 17.503906 24.527344 17.574219 24.527344 C 17.722656 24.527344 17.871094 24.527344 18.023438 24.527344 C 18.210938 24.527344 18.402344 24.53125 18.59375 24.53125 C 18.742188 24.53125 18.890625 24.53125 19.035156 24.53125 C 19.105469 24.535156 19.175781 24.535156 19.246094 24.535156 C 19.855469 24.542969 19.855469 24.542969 20.363281 24.253906 C 20.5625 24.023438 20.582031 23.894531 20.570312 23.589844 C 20.53125 23.355469 20.46875 23.121094 20.40625 22.890625 C 20.398438 22.855469 20.390625 22.824219 20.378906 22.789062 C 19.789062 20.492188 18.828125 18.347656 17.339844 16.476562 C 17.304688 16.429688 17.269531 16.382812 17.230469 16.335938 C 14.820312 13.363281 11.117188 11.734375 7.332031 11.277344 C 6.566406 11.195312 5.785156 11.136719 5.015625 11.167969 C 4.714844 11.179688 4.453125 11.121094 4.21875 10.933594 C 4.199219 10.902344 4.175781 10.875 4.152344 10.84375 C 4.128906 10.816406 4.105469 10.789062 4.082031 10.757812 C 3.957031 10.574219 3.96875 10.40625 3.96875 10.191406 C 3.96875 10.15625 3.96875 10.121094 3.96875 10.085938 C 3.964844 9.96875 3.964844 9.855469 3.964844 9.738281 C 3.964844 9.65625 3.964844 9.574219 3.964844 9.488281 C 3.964844 9.214844 3.964844 8.945312 3.964844 8.671875 C 3.964844 8.578125 3.964844 8.484375 3.960938 8.390625 C 3.960938 7.949219 3.960938 7.507812 3.960938 7.066406 C 3.960938 6.554688 3.957031 6.046875 3.957031 5.535156 C 3.957031 5.144531 3.953125 4.75 3.953125 4.355469 C 3.953125 4.121094 3.953125 3.882812 3.953125 3.648438 C 3.953125 3.429688 3.953125 3.207031 3.953125 2.984375 C 3.953125 2.90625 3.953125 2.824219 3.949219 2.742188 C 3.949219 2.632812 3.949219 2.519531 3.949219 2.410156 C 3.949219 2.347656 3.949219 2.285156 3.949219 2.222656 C 3.988281 1.945312 4.097656 1.765625 4.324219 1.589844 C 4.554688 1.46875 4.738281 1.453125 4.992188 1.453125 Z M 4.992188 1.453125 "/>
</g>
</svg>
