<?xml version="1.0" encoding="UTF-8"?>
<svg xmlns="http://www.w3.org/2000/svg" xmlns:xlink="http://www.w3.org/1999/xlink" width="636px" height="636px" viewBox="0 0 636 636" version="1.1">
<g id="surface1">
<path style=" stroke:none;fill-rule:nonzero;fill:rgb(0%,40.392157%,52.54902%);fill-opacity:1;" d="M 99.21875 38.820312 C 100.304688 38.820312 100.304688 38.820312 101.472656 38.820312 C 110.398438 38.894531 119.25 39.75 128.179688 40.605469 C 129.109375 40.757812 129.964844 40.835938 130.894531 40.914062 C 215.363281 49.066406 298.589844 68.785156 411.007812 135.554688 C 413.492188 137.339844 416.054688 139.125 418.539062 140.832031 C 424.828125 145.335938 430.652344 150.304688 436.472656 155.273438 C 437.5625 156.128906 437.5625 156.128906 438.648438 157.058594 C 440.589844 158.6875 442.527344 160.398438 444.394531 162.027344 C 445.167969 162.726562 445.945312 163.347656 446.722656 164.046875 C 453.320312 169.867188 459.609375 175.847656 465.898438 181.902344 C 467.296875 183.300781 468.691406 184.699219 470.089844 186.015625 C 475.371094 191.21875 480.261719 196.578125 484.917969 202.242188 C 486.78125 204.574219 488.800781 206.746094 490.820312 208.921875 C 495.476562 214.042969 499.59375 219.480469 503.628906 224.992188 C 504.09375 225.535156 504.484375 226.078125 504.871094 226.621094 C 528.9375 259.074219 549.046875 294.164062 563.875 331.585938 C 564.339844 332.597656 564.730469 333.683594 565.195312 334.691406 C 588.097656 392.609375 602.925781 456.582031 603.859375 518.921875 C 603.859375 519.777344 603.859375 520.554688 603.9375 521.40625 C 603.859375 529.015625 601.527344 535.925781 596.328125 541.671875 C 589.183594 547.882812 582.507812 549.203125 573.113281 548.890625 C 565.972656 548.191406 560.304688 545.707031 555.644531 540.195312 C 551.222656 534.453125 549.824219 528.863281 549.359375 521.71875 C 549.28125 520.167969 549.125 518.691406 549.046875 517.214844 C 548.96875 516.4375 548.96875 515.664062 548.890625 514.808594 C 543.070312 431.972656 521.796875 350.761719 440.433594 238.578125 C 439.8125 237.878906 439.191406 237.101562 438.492188 236.402344 C 432.824219 230.113281 426.925781 224.136719 420.867188 218.160156 C 419.9375 217.226562 419.003906 216.375 418.074219 215.441406 C 412.019531 209.464844 405.652344 204.105469 398.976562 198.828125 C 397.886719 197.894531 396.800781 196.964844 395.636719 196.03125 C 332.441406 142.386719 235.859375 94.640625 151.234375 89.125 C 145.800781 89.59375 141.921875 92.386719 138.347656 96.269531 C 136.019531 100.230469 136.097656 103.878906 136.097656 108.304688 C 136.097656 109 136.097656 109.777344 136.019531 110.476562 C 136.019531 112.960938 136.019531 115.367188 135.941406 117.773438 C 135.941406 119.484375 135.941406 121.191406 135.941406 122.898438 C 135.863281 127.324219 135.785156 131.75 135.785156 136.253906 C 135.707031 140.753906 135.632812 145.335938 135.632812 149.839844 C 135.476562 158.765625 135.398438 167.617188 135.320312 176.546875 C 136.175781 176.625 137.027344 176.703125 137.882812 176.777344 C 139.046875 176.855469 140.132812 176.933594 141.296875 177.011719 C 142.464844 177.089844 143.550781 177.167969 144.714844 177.246094 C 150.148438 177.710938 155.507812 178.640625 160.941406 179.574219 C 162.726562 179.882812 162.726562 179.882812 164.511719 180.195312 C 218.238281 190.054688 272.039062 207.367188 316.992188 238.578125 C 318 239.277344 318 239.277344 319.007812 239.898438 C 335.003906 250.921875 349.367188 263.109375 363.417969 276.308594 C 364.347656 277.242188 365.28125 278.09375 366.210938 278.949219 C 372.035156 284.539062 377.160156 290.4375 382.207031 296.648438 C 383.214844 297.890625 383.214844 297.890625 384.300781 299.132812 C 437.015625 360.621094 463.722656 446.023438 464.578125 525.601562 C 464.578125 526.84375 464.65625 528.007812 464.65625 529.328125 C 464.65625 536.859375 464.113281 542.757812 458.445312 548.425781 C 457.824219 548.738281 457.28125 549.125 456.660156 549.433594 C 456.117188 549.824219 455.574219 550.210938 454.953125 550.601562 C 451.148438 552.617188 447.886719 552.539062 443.695312 552.617188 C 442.996094 552.617188 442.296875 552.617188 441.597656 552.617188 C 439.269531 552.617188 437.015625 552.617188 434.6875 552.617188 C 433.058594 552.617188 431.425781 552.617188 429.796875 552.617188 C 424.363281 552.617188 419.003906 552.695312 413.570312 552.695312 C 411.707031 552.695312 409.84375 552.695312 408.058594 552.695312 C 399.285156 552.695312 390.589844 552.695312 381.816406 552.695312 C 371.726562 552.695312 361.710938 552.773438 351.617188 552.773438 C 343.851562 552.851562 336.011719 552.851562 328.25 552.851562 C 323.589844 552.851562 318.933594 552.851562 314.273438 552.851562 C 309.925781 552.929688 305.5 552.929688 301.152344 552.929688 C 299.523438 552.929688 297.96875 552.929688 296.339844 552.929688 C 281.121094 553.007812 281.121094 553.007812 274.523438 548.582031 C 270.796875 544 269.554688 540.195312 269.011719 534.453125 C 264.273438 484.6875 249.445312 436.707031 209.542969 403.089844 C 193.78125 390.667969 167.617188 371.257812 146.265625 372.8125 C 142.539062 373.589844 140.367188 374.753906 137.261719 377.082031 C 133.84375 382.515625 133.226562 387.097656 133.148438 393.464844 C 133.148438 394.085938 133.070312 394.78125 133.070312 395.480469 C 133.070312 397.65625 133.070312 399.828125 132.992188 402.003906 C 132.992188 403.476562 132.992188 405.03125 132.914062 406.507812 C 132.914062 410.542969 132.835938 414.503906 132.757812 418.460938 C 132.757812 422.578125 132.679688 426.613281 132.601562 430.652344 C 132.527344 438.648438 132.449219 446.644531 132.371094 454.5625 C 133.226562 454.875 134.15625 455.183594 135.085938 455.496094 C 144.871094 458.753906 152.789062 464.964844 160.007812 472.03125 C 160.707031 472.652344 161.328125 473.351562 162.105469 473.972656 C 174.761719 486.625 180.503906 505.804688 181.046875 523.195312 C 180.582031 545.164062 170.800781 563.566406 155.039062 578.625 C 142.617188 588.953125 126.859375 595.164062 110.632812 596.015625 C 109.3125 596.09375 109.3125 596.09375 107.914062 596.171875 C 87.265625 596.792969 68.476562 588.5625 53.570312 574.976562 C 40.214844 562.324219 31.675781 543.613281 31.367188 525.445312 C 31.289062 503.863281 38.894531 485.460938 54.34375 470.089844 C 60.402344 464.191406 67.855469 458.210938 76.007812 455.574219 C 76.085938 454.953125 76.085938 454.332031 76.085938 453.710938 C 76.238281 438.804688 76.472656 423.972656 76.703125 409.066406 C 76.859375 401.847656 76.9375 394.707031 77.015625 387.484375 C 77.09375 381.195312 77.171875 374.90625 77.324219 368.695312 C 77.324219 365.359375 77.402344 362.019531 77.480469 358.683594 C 77.480469 354.957031 77.558594 351.304688 77.636719 347.578125 C 77.636719 345.949219 77.636719 345.949219 77.636719 344.242188 C 77.945312 327.859375 77.945312 327.859375 82.21875 322.425781 C 88.507812 316.679688 94.328125 316.523438 102.480469 316.757812 C 164.824219 319.628906 225.691406 340.746094 268.777344 386.164062 C 292.921875 413.027344 308.992188 445.867188 316.292969 480.960938 C 317.535156 486.78125 319.320312 491.441406 324.445312 495.089844 C 328.714844 497.109375 332.363281 497.339844 337.097656 497.339844 C 338.960938 497.417969 338.960938 497.417969 340.902344 497.417969 C 342.300781 497.417969 343.621094 497.417969 345.019531 497.417969 C 346.414062 497.417969 347.890625 497.417969 349.289062 497.417969 C 352.238281 497.417969 355.1875 497.417969 358.214844 497.417969 C 361.941406 497.417969 365.746094 497.496094 369.550781 497.496094 C 372.5 497.496094 375.453125 497.496094 378.324219 497.496094 C 379.722656 497.574219 381.117188 497.574219 382.515625 497.574219 C 394.628906 497.730469 394.628906 497.730469 404.71875 491.984375 C 408.679688 487.402344 409.066406 484.839844 408.835938 478.785156 C 408.058594 474.128906 406.816406 469.46875 405.574219 464.890625 C 405.417969 464.191406 405.265625 463.570312 405.03125 462.871094 C 393.308594 417.21875 374.210938 374.597656 344.628906 337.410156 C 343.929688 336.476562 343.230469 335.546875 342.457031 334.613281 C 294.554688 275.53125 220.953125 243.15625 145.722656 234.074219 C 130.507812 232.445312 114.980469 231.28125 99.6875 231.902344 C 93.707031 232.132812 88.507812 230.96875 83.847656 227.242188 C 83.460938 226.621094 82.992188 226.078125 82.527344 225.457031 C 82.0625 224.914062 81.597656 224.371094 81.128906 223.75 C 78.644531 220.101562 78.878906 216.761719 78.878906 212.492188 C 78.878906 211.792969 78.878906 211.09375 78.878906 210.394531 C 78.800781 208.066406 78.800781 205.816406 78.800781 203.484375 C 78.800781 201.855469 78.800781 200.226562 78.800781 198.515625 C 78.800781 193.082031 78.800781 187.726562 78.800781 182.289062 C 78.800781 180.425781 78.800781 178.5625 78.722656 176.703125 C 78.722656 167.929688 78.722656 159.15625 78.722656 150.382812 C 78.722656 140.210938 78.644531 130.117188 78.644531 119.949219 C 78.644531 112.183594 78.570312 104.34375 78.570312 96.503906 C 78.570312 91.84375 78.570312 87.109375 78.570312 82.449219 C 78.570312 78.101562 78.570312 73.675781 78.570312 69.25 C 78.570312 67.699219 78.570312 66.070312 78.492188 64.4375 C 78.492188 62.265625 78.492188 60.011719 78.492188 57.839844 C 78.492188 56.597656 78.492188 55.355469 78.492188 54.113281 C 79.265625 48.601562 81.441406 45.03125 85.945312 41.535156 C 90.523438 39.128906 94.171875 38.820312 99.21875 38.820312 Z M 99.21875 38.820312 "/>
</g>
</svg>
